<svg width="24" height="20" viewBox="0 0 24 20" fill="none" xmlns="http://www.w3.org/2000/svg">
<path d="M21.5321 4.98045C21.5468 5.19968 21.5468 5.4189 21.5468 5.63662C21.5588 7.52623 21.2051 9.39945 20.5063 11.1476C19.8076 12.8957 18.7776 14.484 17.4763 15.8202C16.1749 17.1563 14.6281 18.2139 12.9255 18.9313C11.223 19.6488 9.39859 20.012 7.55826 19.9997C4.87935 20.0098 2.25465 19.2249 0 17.7394C0.394581 17.7839 0.791357 17.8046 1.18829 17.8014C3.40203 17.8072 5.55314 17.0471 7.29468 15.6439C6.2682 15.6251 5.27308 15.2775 4.44836 14.6497C3.62364 14.022 3.01051 13.1453 2.69464 12.1423C3.002 12.1924 3.31259 12.2187 3.62378 12.221C4.06055 12.2195 4.49541 12.1616 4.91809 12.0486C3.80429 11.8171 2.80291 11.1967 2.08407 10.293C1.36523 9.38928 0.973272 8.2579 0.974784 7.09107V7.02908C1.65639 7.41966 2.41824 7.63931 3.19823 7.67013C2.15403 6.95526 1.41498 5.85807 1.13202 4.60262C0.849054 3.34717 1.04351 2.02816 1.67569 0.914948C2.9106 2.47765 4.45171 3.75629 6.19901 4.66792C7.94632 5.57954 9.86077 6.10378 11.8181 6.20661C11.7391 5.82636 11.6982 5.4388 11.6959 5.05C11.6971 4.03714 11.9945 3.04799 12.5496 2.21073C13.1047 1.37346 13.8919 0.726696 14.8092 0.354242C15.7266 -0.0182118 16.7317 -0.0991777 17.6944 0.121837C18.657 0.342851 19.5329 0.855652 20.2084 1.59379C21.3099 1.37579 22.3661 0.962954 23.33 0.373684C22.9632 1.541 22.194 2.53072 21.1669 3.1571C22.144 3.04297 23.0989 2.77951 24 2.37545C23.3258 3.38 22.4915 4.26068 21.5321 4.98045Z" fill="url(#paint0_linear_48_411)"/>
<defs>
<linearGradient id="paint0_linear_48_411" x1="12" y1="0" x2="12" y2="20" gradientUnits="userSpaceOnUse">
<stop stop-color="#1F78FF"/>
<stop offset="1" stop-color="#1F6CE1"/>
</linearGradient>
</defs>
</svg>
